# xmcd
#
# Track frame offsets:
#	150
#	4671
#	19276
#	40373
#	56510
#	68294
#	87646
#	101201
#	117313
#	130638
#	145856
#	163658
#	179447
#	194697
#	205561
#	224489
#	240351
#	256677
#	274605
#	299603
#	319096
#	338444
#
# Disc length: 4776 seconds
# Revision: 0
# Processed by: cddbd v1.5.2PL0 Copyright (c) Steve Scherf et al.
# Submitted via: dBpowerAMP V12.0
#
DISCID=4012a616
DTITLE=Various Artist - The Hollywood Recordings
DYEAR=2007
DGENRE=Hip-Hop/Rap
TTITLE0=Sa-Ra - Seagulls (Intro)
TTITLE1=Sa-Ra - Hey Love
TTITLE2=Sa-Ra - Glorious
TTITLE3=Sa-Ra feat. Rozi Daime - So Special
TTITLE4=Sa-Ra - And If
TTITLE5=Sa-Ra - Rosebuds
TTITLE6=Sa-Ra feat. Talib Kweli - Feel the Bass
TTITLE7=Sa-Ra feat. Capone-N-Noreaga and Lord Nez - Not On Our Level
TTITLE8=Sa-Ra - White! (On the Floor)
TTITLE9=Sa-Ra - Bitch
TTITLE10=Sa-Ra  feat. Ty (of Ty and Kory) - Do Me Gurl
TTITLE11=Sa-Ra - Ladies Song
TTITLE12=Sa-Ra feat. Bilal - Sweet Sour You
TTITLE13=Sa-Ra feat. Rozzi Daime - Tracy
TTITLE14=Sa-Ra feat. Erykah Badu and Georgia Anne Muldrow - Fly Away
TTITLE15=Sa-Ra feat. Kurupt, Lord Nez and Erika Rose - Lean on Me
TTITLE16=Sa-Ra feat. Pharaohe Monch - Fish Fillet
TTITLE17=Sa-Ra feat. J. Dilla - Thrilla
TTITLE18=Sa-Ra - Hollywood (redux)
TTITLE19=Sa-Ra - Glorious (Redux)
TTITLE20=Sa-Ra feat. Debi Nova - Scorpio (A Night on the Sun)
TTITLE21=Sa-Ra - Rosebuds [redux]
EXTD=
EXTT0=
EXTT1=
EXTT2=
EXTT3=
EXTT4=
EXTT5=
EXTT6=
EXTT7=
EXTT8=
EXTT9=
EXTT10=
EXTT11=
EXTT12=
EXTT13=
EXTT14=
EXTT15=
EXTT16=
EXTT17=
EXTT18=
EXTT19=
EXTT20=
EXTT21=
PLAYORDER=
